<?xml version="1.0" encoding="UTF-8" standalone="no"?>
<!-- Created with Inkscape (http://www.inkscape.org/) -->

<svg
   width="406"
   height="375"
   viewBox="0 0 107.42083 99.218753"
   version="1.1"
   id="svg62"
   sodipodi:docname="categorydata_darkmode.svg"
   inkscape:version="1.1.2 (0a00cf5339, 2022-02-04)"
   xmlns:inkscape="http://www.inkscape.org/namespaces/inkscape"
   xmlns:sodipodi="http://sodipodi.sourceforge.net/DTD/sodipodi-0.dtd"
   xmlns="http://www.w3.org/2000/svg"
   xmlns:svg="http://www.w3.org/2000/svg">
  <sodipodi:namedview
     id="namedview64"
     pagecolor="#ffffff"
     bordercolor="#666666"
     borderopacity="1.0"
     inkscape:pageshadow="2"
     inkscape:pageopacity="0.0"
     inkscape:pagecheckerboard="0"
     inkscape:document-units="mm"
     showgrid="false"
     units="px"
     inkscape:zoom="0.99079759"
     inkscape:cx="98.910212"
     inkscape:cy="129.18885"
     inkscape:window-width="1920"
     inkscape:window-height="996"
     inkscape:window-x="0"
     inkscape:window-y="29"
     inkscape:window-maximized="1"
     inkscape:current-layer="layer1" />
  <defs
     id="defs59" />
  <g
     inkscape:label="Layer 1"
     inkscape:groupmode="layer"
     id="layer1">
    <path
       style="fill:none;stroke:#ffffff;stroke-width:2.48596;stroke-linecap:butt;stroke-linejoin:round;stroke-miterlimit:10;stroke-opacity:1"
       d="M 53.710417,1.8788893 V 17.789052 L 21.890091,49.609377 53.710417,81.429702 85.530742,49.609377 53.710417,17.789052 37.800254,33.699214 69.620579,65.51954 53.710417,81.429702 v 15.910163"
       id="path2" />
    <path
       style="fill:#000000;fill-opacity:1;fill-rule:evenodd;stroke:#ffffff;stroke-width:0.214787;stroke-linecap:butt;stroke-linejoin:round;stroke-miterlimit:10;stroke-opacity:1"
       d="m 62.301903,17.789053 c 0,-4.744617 -3.846871,-8.5914891 -8.591485,-8.5914891 -4.744617,0 -8.591489,3.8468721 -8.591489,8.5914891 0,4.744617 3.846872,8.591486 8.591489,8.591486 4.744615,0 8.591485,-3.846869 8.591485,-8.591486 z m 0,0"
       id="path4" />
    <path
       style="fill:#000000;fill-opacity:1;fill-rule:evenodd;stroke:#ffffff;stroke-width:0.214787;stroke-linecap:butt;stroke-linejoin:round;stroke-miterlimit:10;stroke-opacity:1"
       d="m 46.391742,33.699213 c 0,-4.744617 -3.846871,-8.591486 -8.591488,-8.591486 -4.744617,0 -8.591488,3.846869 -8.591488,8.591486 0,4.744617 3.846871,8.591489 8.591488,8.591489 4.744617,0 8.591488,-3.846872 8.591488,-8.591489 z m 0,0"
       id="path6" />
    <path
       style="fill:#000000;fill-opacity:1;fill-rule:evenodd;stroke:#ffffff;stroke-width:0.214787;stroke-linecap:butt;stroke-linejoin:round;stroke-miterlimit:10;stroke-opacity:1"
       d="m 78.212067,65.519541 c 0,-4.744617 -3.846871,-8.591489 -8.591488,-8.591489 -4.744617,0 -8.591488,3.846872 -8.591488,8.591489 0,4.744614 3.846871,8.591486 8.591488,8.591486 4.744617,0 8.591488,-3.846871 8.591488,-8.591486 z m 0,0"
       id="path8" />
    <path
       style="fill:#000000;fill-opacity:1;fill-rule:evenodd;stroke:#ffffff;stroke-width:0.214787;stroke-linecap:butt;stroke-linejoin:round;stroke-miterlimit:10;stroke-opacity:1"
       d="m 62.301903,81.429702 c 0,-4.744617 -3.846871,-8.591488 -8.591485,-8.591488 -4.744617,0 -8.591489,3.846871 -8.591489,8.591488 0,4.744617 3.846872,8.591488 8.591489,8.591488 4.744615,0 8.591485,-3.846871 8.591485,-8.591488 z m 0,0"
       id="path10" />
    <path
       style="fill:#ca3a33;fill-opacity:0.75;fill-rule:evenodd;stroke:#ca3a33;stroke-width:0.214787;stroke-linecap:butt;stroke-linejoin:round;stroke-miterlimit:10;stroke-opacity:0.75"
       d="m 62.301903,17.789053 c 0,-4.744617 -3.846871,-8.5914891 -8.591485,-8.5914891 -4.744617,0 -8.591489,3.8468721 -8.591489,8.5914891 0,4.744617 3.846872,8.591486 8.591489,8.591486 4.744615,0 8.591485,-3.846869 8.591485,-8.591486 z m 0,0"
       id="path12" />
    <path
       style="fill:#389723;fill-opacity:0.75;fill-rule:evenodd;stroke:#389723;stroke-width:0.214787;stroke-linecap:butt;stroke-linejoin:round;stroke-miterlimit:10;stroke-opacity:0.75"
       d="m 46.391742,33.699213 c 0,-4.744617 -3.846871,-8.591486 -8.591488,-8.591486 -4.744617,0 -8.591488,3.846869 -8.591488,8.591486 0,4.744617 3.846871,8.591489 8.591488,8.591489 4.744617,0 8.591488,-3.846872 8.591488,-8.591489 z m 0,0"
       id="path14" />
    <path
       style="fill:#9457b0;fill-opacity:0.75;fill-rule:evenodd;stroke:#9457b0;stroke-width:0.214787;stroke-linecap:butt;stroke-linejoin:round;stroke-miterlimit:10;stroke-opacity:0.75"
       d="m 78.212067,65.519541 c 0,-4.744617 -3.846871,-8.591489 -8.591488,-8.591489 -4.744617,0 -8.591488,3.846872 -8.591488,8.591489 0,4.744614 3.846871,8.591486 8.591488,8.591486 4.744617,0 8.591488,-3.846871 8.591488,-8.591486 z m 0,0"
       id="path16" />
    <path
       style="fill:#3f61d7;fill-opacity:0.75;fill-rule:evenodd;stroke:#3f61d7;stroke-width:0.214787;stroke-linecap:butt;stroke-linejoin:round;stroke-miterlimit:10;stroke-opacity:0.75"
       d="m 62.301903,81.429702 c 0,-4.744617 -3.846871,-8.591488 -8.591485,-8.591488 -4.744617,0 -8.591489,3.846871 -8.591489,8.591488 0,4.744617 3.846872,8.591488 8.591489,8.591488 4.744615,0 8.591485,-3.846871 8.591485,-8.591488 z m 0,0"
       id="path18" />
  </g>
</svg>
