<?xml version="1.0" encoding="UTF-8"?>
<svg xmlns="http://www.w3.org/2000/svg" xmlns:xlink="http://www.w3.org/1999/xlink" width="267pt" height="395pt" viewBox="0 0 267 395" version="1.1">
<g id="surface32354">
<path style="fill:none;stroke-width:10;stroke-linecap:butt;stroke-linejoin:round;stroke:rgb(100%,100%,100%);stroke-opacity:1;stroke-miterlimit:10;" d="M 256 768 L 256 704 L 128 576 L 256 448 L 384 576 L 256 704 L 192 640 L 320 512 L 256 448 L 256 384 " transform="matrix(1,0,0,-1,-123,773)"/>
<path style="fill-rule:evenodd;fill:rgb(0%,0%,0%);fill-opacity:1;stroke-width:0.4;stroke-linecap:butt;stroke-linejoin:round;stroke:rgb(0%,0%,0%);stroke-opacity:1;stroke-miterlimit:10;" d="M 272 704 C 272 712.835938 264.835938 720 256 720 C 247.164062 720 240 712.835938 240 704 C 240 695.164062 247.164062 688 256 688 C 264.835938 688 272 695.164062 272 704 Z M 272 704 " transform="matrix(1,0,0,-1,-123,773)"/>
<path style="fill-rule:evenodd;fill:rgb(0%,0%,0%);fill-opacity:1;stroke-width:0.4;stroke-linecap:butt;stroke-linejoin:round;stroke:rgb(0%,0%,0%);stroke-opacity:1;stroke-miterlimit:10;" d="M 208 640 C 208 648.835938 200.835938 656 192 656 C 183.164062 656 176 648.835938 176 640 C 176 631.164062 183.164062 624 192 624 C 200.835938 624 208 631.164062 208 640 Z M 208 640 " transform="matrix(1,0,0,-1,-123,773)"/>
<path style="fill-rule:evenodd;fill:rgb(0%,0%,0%);fill-opacity:1;stroke-width:0.4;stroke-linecap:butt;stroke-linejoin:round;stroke:rgb(0%,0%,0%);stroke-opacity:1;stroke-miterlimit:10;" d="M 336 512 C 336 520.835938 328.835938 528 320 528 C 311.164062 528 304 520.835938 304 512 C 304 503.164062 311.164062 496 320 496 C 328.835938 496 336 503.164062 336 512 Z M 336 512 " transform="matrix(1,0,0,-1,-123,773)"/>
<path style="fill-rule:evenodd;fill:rgb(0%,0%,0%);fill-opacity:1;stroke-width:0.4;stroke-linecap:butt;stroke-linejoin:round;stroke:rgb(0%,0%,0%);stroke-opacity:1;stroke-miterlimit:10;" d="M 272 448 C 272 456.835938 264.835938 464 256 464 C 247.164062 464 240 456.835938 240 448 C 240 439.164062 247.164062 432 256 432 C 264.835938 432 272 439.164062 272 448 Z M 272 448 " transform="matrix(1,0,0,-1,-123,773)"/>
<path style="fill-rule:evenodd;fill:rgb(79.6%,23.5%,20%);fill-opacity:0.75;stroke-width:0.4;stroke-linecap:butt;stroke-linejoin:round;stroke:rgb(79.6%,23.5%,20%);stroke-opacity:0.75;stroke-miterlimit:10;" d="M 272 704 C 272 712.835938 264.835938 720 256 720 C 247.164062 720 240 712.835938 240 704 C 240 695.164062 247.164062 688 256 688 C 264.835938 688 272 695.164062 272 704 Z M 272 704 " transform="matrix(1,0,0,-1,-123,773)"/>
<path style="fill-rule:evenodd;fill:rgb(22%,59.6%,14.9%);fill-opacity:0.75;stroke-width:0.4;stroke-linecap:butt;stroke-linejoin:round;stroke:rgb(22%,59.6%,14.9%);stroke-opacity:0.75;stroke-miterlimit:10;" d="M 208 640 C 208 648.835938 200.835938 656 192 656 C 183.164062 656 176 648.835938 176 640 C 176 631.164062 183.164062 624 192 624 C 200.835938 624 208 631.164062 208 640 Z M 208 640 " transform="matrix(1,0,0,-1,-123,773)"/>
<path style="fill-rule:evenodd;fill:rgb(58.4%,34.5%,69.8%);fill-opacity:0.75;stroke-width:0.4;stroke-linecap:butt;stroke-linejoin:round;stroke:rgb(58.4%,34.5%,69.8%);stroke-opacity:0.75;stroke-miterlimit:10;" d="M 336 512 C 336 520.835938 328.835938 528 320 528 C 311.164062 528 304 520.835938 304 512 C 304 503.164062 311.164062 496 320 496 C 328.835938 496 336 503.164062 336 512 Z M 336 512 " transform="matrix(1,0,0,-1,-123,773)"/>
<path style="fill-rule:evenodd;fill:rgb(25.1%,38.8%,84.7%);fill-opacity:0.75;stroke-width:0.4;stroke-linecap:butt;stroke-linejoin:round;stroke:rgb(25.1%,38.8%,84.7%);stroke-opacity:0.75;stroke-miterlimit:10;" d="M 272 448 C 272 456.835938 264.835938 464 256 464 C 247.164062 464 240 456.835938 240 448 C 240 439.164062 247.164062 432 256 432 C 264.835938 432 272 439.164062 272 448 Z M 272 448 " transform="matrix(1,0,0,-1,-123,773)"/>
</g>
</svg>
